<?xml version="1.0" encoding="utf-8"?>
<!-- Generator: Adobe Illustrator 24.3.0, SVG Export Plug-In . SVG Version: 6.00 Build 0)  -->
<svg version="1.1" id="Calque_1" xmlns="http://www.w3.org/2000/svg" xmlns:xlink="http://www.w3.org/1999/xlink" x="0px" y="0px"
	 viewBox="0 0 1366 768" style="enable-background:new 0 0 1366 768;" xml:space="preserve">
<style type="text/css">
	.st0{fill:#FFFFFF;}
</style>
<g>
	<g>
		<g>
			<polygon class="st0" points="169.48,331.93 169.48,436.07 259.67,488.14 349.85,436.07 349.85,331.93 259.67,279.86 			"/>
			<path class="st0" d="M294.38,175.73c0-19.17-15.54-34.71-34.71-34.71c-19.17,0-34.71,15.54-34.71,34.71
				c0,15.2,9.78,28.08,23.38,32.78l11.33,54l11.32-54C284.59,203.81,294.38,190.92,294.38,175.73z"/>
			<path class="st0" d="M224.96,592.27c0,19.17,15.54,34.71,34.71,34.71c19.17,0,34.71-15.54,34.71-34.71
				c0-15.2-9.78-28.08-23.38-32.78l-11.33-54l-11.32,54C234.74,564.19,224.96,577.08,224.96,592.27z"/>
			<path class="st0" d="M96.65,249.8c-16.6-9.58-37.83-3.9-47.41,12.71c-9.58,16.6-3.9,37.83,12.7,47.41
				c13.16,7.6,29.21,5.57,40.08-3.86l52.43,17.19l-41.1-36.81C116.08,272.32,109.81,257.4,96.65,249.8z"/>
			<path class="st0" d="M422.68,518.2c16.6,9.58,37.83,3.9,47.41-12.71c9.58-16.6,3.9-37.83-12.7-47.41
				c-13.16-7.6-29.21-5.57-40.08,3.86l-52.43-17.19l41.1,36.81C403.25,495.68,409.52,510.6,422.68,518.2z"/>
			<path class="st0" d="M422.68,249.8c16.6-9.58,37.83-3.9,47.41,12.71c9.58,16.6,3.9,37.83-12.7,47.41
				c-13.16,7.6-29.21,5.57-40.08-3.86l-52.43,17.19l41.1-36.81C403.25,272.32,409.52,257.4,422.68,249.8z"/>
			<path class="st0" d="M96.65,518.2c-16.6,9.58-37.83,3.9-47.41-12.71c-9.58-16.6-3.9-37.83,12.7-47.41
				c13.16-7.6,29.21-5.57,40.08,3.86l52.43-17.19l-41.1,36.81C116.08,495.68,109.81,510.6,96.65,518.2z"/>
		</g>
		<g>
			<g>
				<path class="st0" d="M611.04,365.58c0-45.95,33.82-81.28,81.5-81.28c30.34,0,52.67,12.57,67.63,31.86l-31.65,22.33
					c-7.59-11.7-19.72-18.42-35.76-18.42c-24.49,0-44,19.51-44,45.52c0,26.88,18.42,45.3,44.65,45.3c18.21,0,30.99-9.1,36.41-24.71
					h-43.99v-35.11h84.96v17.99c0,41.83-30.99,77.81-76.72,77.81c-32.95,0-57.68-15.3-71.25-37.77
					C615.14,396.39,611.04,381.39,611.04,365.58z"/>
				<path class="st0" d="M842.04,386.17c0-33.59,26.23-60.91,61.56-60.91c35.76,0,60.9,25.79,60.9,60.26v12.79h-87.13
					c3.9,11.7,13.66,18.21,27.09,18.21c11.27,0,19.29-4.55,24.06-12.36L958,421.28c-11.92,16.04-27.96,25.58-54.19,25.58
					C865.66,446.86,842.04,420.2,842.04,386.17z M878.45,371.43h50.07c-3.9-10.4-12.79-15.83-24.71-15.83
					C892.1,355.6,883,361.68,878.45,371.43z"/>
				<path class="st0" d="M980.73,327.65h36.63v13.65c7.37-9.97,18.21-16.04,31.43-16.04c25.79,0,42.48,17.13,42.48,45.95v73.48
					h-37.49v-66.11c0-13.44-5.86-21.24-17.78-21.24c-10.61,0-18.42,7.59-18.42,22.98v64.37h-36.84V327.65z"/>
				<path class="st0" d="M1283.7,327.65l-23.84,66.32l-19.2-49.8c-3.84-9.96-13.41-16.52-24.08-16.52l0,0h-21.09h-36.83v-45.08
					l-35.98,19.72v25.36h-20.16v32.08h20.16v40.53c0,34.68,14.96,46.6,40.97,46.6c11.92,0,22.76-3.9,31.21-10.4l-16.47-27.53
					c-3.04,2.82-6.06,4.12-9.54,4.12c-6.29,0-10.19-3.04-10.19-14.96v-38.37h43.54c3.83,0,7.29,2.32,8.73,5.87l30.51,74.98
					l-1.74,4.34c-4.11,10.84-10.62,15.39-19.94,15.39c-6.51,0-11.71-3.04-15.82-7.37l-20.81,28.61
					c9.54,7.15,23.19,12.57,37.06,12.57c26.67,0,39.89-10.62,52.46-42.7l48.77-123.76H1283.7z"/>
				<path class="st0" d="M789.39,293.61l36.19-19.72v170.8h-36.19V293.61z"/>
			</g>
		</g>
	</g>
</g>
</svg>
